<svg id="Layer_1" data-name="Layer 1" xmlns="http://www.w3.org/2000/svg" xmlns:xlink="http://www.w3.org/1999/xlink" viewBox="0 0 50 50"><defs><style>.cls-1{fill:url(#linear-gradient);}</style><linearGradient id="linear-gradient" x1="165.89" y1="-1787.11" x2="200" y2="-1821.22" gradientTransform="matrix(1, 0, 0, -1, -157.5, -1777.23)" gradientUnits="userSpaceOnUse"><stop offset="0" stop-color="#9f2fff"/><stop offset="1" stop-color="#0bb1d3"/></linearGradient></defs><path class="cls-1" d="M43.2,14A11.94,11.94,0,0,0,21.58,7.62a9.15,9.15,0,0,0-4.32-1.07A9.24,9.24,0,0,0,8.4,13.08,8.45,8.45,0,0,0,8.7,30h2.88V40.85h0a1.7,1.7,0,0,0-1.7,1.7l0,3.09a1.71,1.71,0,0,0,1.7,1.71H38.44a1.71,1.71,0,0,0,1.7-1.7l0-3.09a1.7,1.7,0,0,0-.5-1.2,1.67,1.67,0,0,0-1.21-.51h0V30H41.7a8.07,8.07,0,0,0,1.5-16ZM38.68,42.35a.29.29,0,0,1,.08.2l0,3.09a.31.31,0,0,1-.3.31H11.51a.26.26,0,0,1-.21-.1.29.29,0,0,1-.09-.2l0-3.09a.29.29,0,0,1,.3-.3h8.63l.37,1.6c.17.75.58.9.9.9h7.12c.32,0,.73-.15.9-.9l.38-1.6h8.63a.29.29,0,0,1,.21.09Zm-17.07-.09h6.78l-.25,1.1H21.86ZM13,40.85V24.75a1.87,1.87,0,0,1,1.87-1.87h6.09v1.76H16.71a1.85,1.85,0,0,0-1.86,1.85V37.24a1.86,1.86,0,0,0,1.86,1.86H33.29a1.86,1.86,0,0,0,1.86-1.86V26.49a1.85,1.85,0,0,0-1.86-1.85H29.05V22.88h6.1A1.87,1.87,0,0,1,37,24.75v16.1ZM27.64,28.56l-.93-.93a.71.71,0,0,0-1,0,.69.69,0,0,0,0,1l2.14,2.14a.7.7,0,0,0,.5.21.68.68,0,0,0,.49-.21L31,28.62a.7.7,0,0,0-1-1l-.93.93h0V26h4.24a.46.46,0,0,1,.46.45V37.24a.46.46,0,0,1-.46.45H16.71a.46.46,0,0,1-.46-.45V26.49a.46.46,0,0,1,.46-.45h4.22v4.22a.71.71,0,0,0,.7.71h0a.71.71,0,0,0,.71-.7V26h5.32v2.52Zm-5.3-3.92V22.88h5.3v1.76Zm19.33,3.92H38.42V24.75a3.28,3.28,0,0,0-3.27-3.27H29v-4.8a.7.7,0,0,0-.7-.7h0a.7.7,0,0,0-.7.7v4.8h-5.3V18.37l.94.95a.74.74,0,0,0,.5.2.71.71,0,0,0,.49-.2.7.7,0,0,0,0-1l-2.14-2.14a.7.7,0,0,0-.49-.2h0a.7.7,0,0,0-.5.2L19,18.32a.7.7,0,0,0,1,1l.94-.95v3.11H14.85a3.28,3.28,0,0,0-3.27,3.27v3.81H8.7a7,7,0,1,1,.22-14.08.7.7,0,0,0,.7-.54,7.85,7.85,0,0,1,11.8-4.79.72.72,0,0,0,1-.22,10.54,10.54,0,0,1,19.43,5.65.69.69,0,0,0,.62.69,6.67,6.67,0,0,1-.77,13.29Zm-4-14.49a.7.7,0,0,1-.7.7h0a.7.7,0,0,1-.7-.7,4.81,4.81,0,0,0-8.85-2.57.7.7,0,1,1-1.18-.76,6.21,6.21,0,0,1,11.43,3.33ZM14.7,44.1a.7.7,0,0,1-.7.7H12.9a.7.7,0,1,1,0-1.4H14A.7.7,0,0,1,14.7,44.1Zm3.56,0a.7.7,0,0,1-.71.7H16.46a.7.7,0,0,1,0-1.4h1.09A.7.7,0,0,1,18.26,44.1Z"/></svg>