<?xml version="1.0" encoding="UTF-8" standalone="no"?>
<!DOCTYPE svg PUBLIC "-//W3C//DTD SVG 1.1//EN" "http://www.w3.org/Graphics/SVG/1.1/DTD/svg11.dtd">
<svg width="100%" height="100%" viewBox="0 0 842 385" version="1.1" xmlns="http://www.w3.org/2000/svg" xmlns:xlink="http://www.w3.org/1999/xlink" xml:space="preserve" xmlns:serif="http://www.serif.com/" style="fill-rule:evenodd;clip-rule:evenodd;stroke-linejoin:round;stroke-miterlimit:2;">
    <g transform="matrix(1,0,0,1,0,-105)">
        <g transform="matrix(0.704401,0,0,0.704401,124.679,87.9141)">
            <path d="M1018.2,148.8L1002.2,143.7L1002.6,396.9L662.7,397.4L662.3,143.4L646.3,149.3L646.3,113L832.3,25.3L1018.2,112.5L1018.2,148.8Z" style="fill:rgb(254,215,83);fill-rule:nonzero;"/>
            <path d="M813.8,281.8C815.4,280 817.7,274.4 818.1,273.8C793.2,270.4 773.9,249.1 773.8,223.2C773.8,195 796.7,172 825,171.9C844,171.9 860.5,182.3 869.4,197.6C872.7,197.6 875.9,197.5 879.2,197.5C869.6,177.2 848.9,163.1 825,163.1C791.9,163.2 765.1,190.1 765.2,223.1C765.2,252.3 786.2,276.6 813.8,281.8C813.7,281.9 813.7,281.9 813.8,281.8Z" style="fill:white;fill-rule:nonzero;"/>
            <path d="M721.7,219L721.7,227.7L758.8,227.6L758.8,218.9L721.7,219Z" style="fill:white;fill-rule:nonzero;"/>
            <path d="M763.6,193.2L731.5,174.7L735.8,167.2L767.9,185.7L763.6,193.2Z" style="fill:white;fill-rule:nonzero;"/>
            <path d="M784.1,167.4L765.5,135.4L773,131L791.6,163.1L784.1,167.4Z" style="fill:white;fill-rule:nonzero;"/>
            <path d="M736,278L731.6,270.5L763.7,251.9L768,259.4L736,278Z" style="fill:white;fill-rule:nonzero;"/>
            <path d="M773.3,314.1L765.8,309.8L784.2,277.6L791.8,282L773.3,314.1Z" style="fill:white;fill-rule:nonzero;"/>
            <path d="M884.1,193L879.7,185.5L911.8,166.9L916.2,174.5L884.1,193Z" style="fill:white;fill-rule:nonzero;"/>
            <path d="M863.5,167.3L856,163L874.5,130.8L882,135.2L863.5,167.3Z" style="fill:white;fill-rule:nonzero;"/>
            <path d="M820.5,121L820.6,158L829.2,158L829.2,120.9L820.5,121Z" style="fill:white;fill-rule:nonzero;"/>
            <path d="M879.3,338.7L806.5,338.8L870.2,211.8L943,211.7L879.3,338.7Z" style="fill:white;fill-rule:nonzero;"/>
            <path d="M-176.4,497L-176.2,568.8L-166.9,568.8L-167,497L-176.4,497Z" style="fill:rgb(26,26,24);fill-rule:nonzero;"/>
            <path d="M-105.9,568.5C-102.8,568.9 -97.9,569.3 -91.5,569.3C-79.7,569.3 -71.6,567.1 -66.7,562.6C-63,559.2 -60.5,554.4 -60.5,548.2C-60.5,537.6 -68.6,531.9 -75.5,530.3L-75.5,530C-68,527.3 -63.4,521.2 -63.4,514.2C-63.4,508.6 -65.8,504.3 -69.5,501.5C-73.9,497.9 -79.8,496.3 -89.1,496.3C-95.5,496.3 -102,497 -106.1,497.9L-105.9,568.5ZM-96.7,504.1C-95.2,503.8 -92.7,503.5 -88.5,503.4C-79.1,503.4 -72.8,506.8 -72.8,515.1C-72.8,522 -78.5,527.2 -88.2,527.3L-96.6,527.3L-96.7,504.1ZM-96.7,534.3L-89,534.3C-78.8,534.3 -70.3,538.4 -70.3,548.1C-70.3,558.5 -79.2,562.1 -88.8,562.1C-92.1,562.1 -94.7,562 -96.6,561.7L-96.7,534.3Z" style="fill:rgb(26,26,24);fill-rule:nonzero;"/>
            <path d="M51.4,530.7L27.7,530.7L27.7,538.2L42.2,538.2L42.2,559.6C40.1,560.7 35.9,561.5 29.8,561.5C13,561.5 2.1,550.8 2,532.5C2,514.5 13.4,503.6 30.8,503.6C38,503.6 42.8,504.9 46.7,506.7L49,499.1C45.9,497.6 39.3,495.8 31,495.8C6.9,495.8 -7.9,511.5 -7.8,533C-7.8,544.2 -3.9,553.8 2.3,559.7C9.4,566.4 18.3,569.2 29.2,569.1C38.9,569.1 47.2,566.7 51.4,565.1L51.4,530.7Z" style="fill:rgb(26,26,24);fill-rule:nonzero;"/>
            <path d="M174,564.8C177.8,567.4 185.4,569.5 192.3,569.5C209.2,569.5 217.3,559.8 217.3,548.7C217.3,538.2 211.2,532.3 199.1,527.6C189.2,523.8 184.8,520.5 184.8,513.8C184.8,508.9 188.5,503 198.3,503C204.8,503 209.6,505 211.8,506.4L214.3,498.8C211.2,497 205.8,495.3 198.5,495.3C184.5,495.3 175.3,503.7 175.3,514.8C175.3,524.8 182.6,531 194.3,535.2C204,538.8 207.9,542.7 207.9,549.3C207.9,556.5 202.4,561.6 192.9,561.6C186.5,561.6 180.5,559.6 176.4,556.9L174,564.8Z" style="fill:rgb(26,26,24);fill-rule:nonzero;"/>
            <path d="M296.4,515.5C282.2,515.5 270.8,525.6 270.9,542.8C270.9,559.1 281.8,569.3 295.7,569.3C308.1,569.3 321.4,560.9 321.4,541.9C321.3,526.2 311.2,515.4 296.4,515.5ZM296.2,522.5C307.3,522.5 311.7,533.5 311.7,542.2C311.7,553.8 305,562.2 296.1,562.3C286.9,562.3 280.5,553.8 280.5,542.5C280.5,532.8 285.2,522.5 296.2,522.5Z" style="fill:rgb(26,26,24);fill-rule:nonzero;"/>
            <path d="M377.7,492.3L377.9,568L387.2,568L387.1,492.3L377.7,492.3Z" style="fill:rgb(26,26,24);fill-rule:nonzero;"/>
            <path d="M484,536.1C484,525.9 480.1,515.2 464.3,515.2C457.8,515.2 451.5,517 447.2,519.7L449.4,526C453,523.6 458,522.2 462.9,522.2C473.5,522.1 474.6,529.8 474.7,534L474.7,535.1C454.8,535 443.7,541.9 443.7,554.3C443.7,561.8 449.1,569.1 459.5,569.1C466.9,569.1 472.4,565.4 475.3,561.4L475.6,561.4L476.3,567.8L484.7,567.8C484.2,564.3 483.9,559.9 483.9,555.5L484,536.1ZM474.9,550.5C474.9,551.3 474.8,552.4 474.5,553.5C473,557.9 468.6,562.1 461.8,562.2C457.1,562.2 453,559.4 453,553.2C453,543.2 464.6,541.4 474.8,541.5L474.9,550.5Z" style="fill:rgb(26,26,24);fill-rule:nonzero;"/>
            <path d="M543.8,567.7L553.2,567.7L553.2,540.2C553.2,538.7 553.3,537.1 553.5,535.8C554.8,528.8 559.4,523.8 566.1,523.8C567.4,523.8 568.3,523.8 569.3,524L569.3,515.1C568.5,515 567.7,514.9 566.8,514.9C560.5,514.9 554.8,519.3 552.4,526.2L552.1,526.2L551.7,515.9L543.5,515.9C543.8,520.8 543.9,526 544,532.1L543.8,567.7Z" style="fill:rgb(26,26,24);fill-rule:nonzero;"/>
            <path d="M724.1,532.3L700.7,532.3L700.7,539.7L715,539.7L715,560.9C712.9,561.9 708.8,562.8 702.8,562.8C686.2,562.8 675.4,552.2 675.4,534.2C675.4,516.4 686.6,505.6 703.9,505.6C711.1,505.6 715.8,506.8 719.6,508.6L721.9,501.1C718.8,499.6 712.3,497.9 704.1,497.9C680.3,497.9 665.7,513.4 665.7,534.6C665.7,545.7 669.5,555.1 675.6,561C682.6,567.6 691.4,570.4 702.2,570.3C711.8,570.3 720,568 724.1,566.4L724.1,532.3Z" style="fill:rgb(26,26,24);fill-rule:nonzero;"/>
            <path d="M759.9,569.5L769,569.5L769,538.8C769,537.2 769.2,535.5 769.7,534.3C771.2,529.7 775.5,525 781.2,525C788.3,525 791.9,530.8 791.9,538.9L791.9,569.5L801,569.5L801,538C801,536.3 801.3,534.7 801.7,533.4C803.4,529 807.4,525.1 812.8,525C820.2,525 823.9,530.8 823.9,540.7L823.9,569.5L833,569.5L833,539.6C833,521.9 822.9,517.5 816.1,517.5C811.2,517.5 808,518.8 804.9,521.1C802.8,522.7 800.7,524.8 799.1,527.7L798.9,527.7C796.7,521.7 791.4,517.5 784.5,517.5C776,517.5 771.2,522.1 768.4,526.9L768.1,526.9L767.7,518.6L759.6,518.6C759.8,522.8 760,527 760,532.4L759.9,569.5Z" style="fill:rgb(26,26,24);fill-rule:nonzero;"/>
            <path d="M869.9,556.2C869.9,560.7 869.7,565.9 869.5,569.4L877.4,569.4L877.9,561.1L878.1,561.1C882,567.7 887.9,570.6 895.3,570.6C906.7,570.6 918.3,561.5 918.2,543.3C918.2,527.9 909.3,517.4 896.6,517.4C888.4,517.4 882.5,521 879.2,526.7L879,526.7L879,494.7L869.8,494.7L869.9,556.2ZM879.1,539.8C879.1,538.3 879.3,537.1 879.6,535.9C881.5,529 887.4,524.5 893.6,524.5C903.6,524.5 908.9,533.2 908.9,543.4C908.9,555.1 903.2,563 893.4,563C886.7,563 881.2,558.6 879.5,552.2C879.2,551.1 879.1,550 879.1,548.8L879.1,539.8Z" style="fill:rgb(26,26,24);fill-rule:nonzero;"/>
            <path d="M952.2,498.2L952.3,569.2L961.5,569.2L961.5,535.9L995.8,535.9L995.9,569.2L1005.2,569.2L1005.1,498.1L995.8,498.1L995.8,527.9L961.5,527.9L961.4,498.2L952.2,498.2Z" style="fill:rgb(26,26,24);fill-rule:nonzero;"/>
            <path d="M-176.5,403L-124.1,402.9L-124.6,66.8L-177,66.9L-176.5,403Z" style="fill:rgb(26,26,24);fill-rule:nonzero;"/>
            <path d="M372.7,226.8L372.8,275.7L456.2,275.6C450.7,323.6 399.7,360.1 356.6,360.1C292.7,360.2 236.5,301.2 236.4,233.8C236.3,163.4 290.4,108.1 359.6,108C396.8,107.9 434,127.2 456.7,158.3L460.7,163.8L497.9,128.2L494.5,123.9C462.1,83.3 411,59.1 357.8,59.2C261.8,59.3 183.8,138.3 184,235.2C184.1,329.6 262,409.2 354,409C446.4,408.9 513.4,340.1 513.2,245.4L513.2,226.5L372.7,226.8Z" style="fill:rgb(26,26,24);fill-rule:nonzero;"/>
            <path d="M103.3,303.3C103.3,337.3 79.6,354.6 32.8,354.6L7.8,354.6L7.6,254.4L26.6,254.4C61.5,254.3 103.2,262.8 103.3,303.3ZM7.5,210.2L7.4,114.7L12.6,114.7C51.4,114.6 75.4,122.5 75.5,162C75.6,202.1 51.2,210.2 11.9,210.3L7.5,210.2ZM98.2,221.3C116,206.8 125.3,181.8 125.3,161.4C125.2,97.5 84.4,66.5 0.5,66.6L-45,66.7L-44.5,402.8L37.2,402.7C94.5,402.6 155.8,377.1 155.7,305.8C155.5,268.1 131.2,233.4 98.2,221.3Z" style="fill:rgb(26,26,24);fill-rule:nonzero;"/>
        </g>
    </g>
</svg>
